<?xml version="1.0" encoding="UTF-8" standalone="no"?>
<svg
   height="256"
   viewBox="0 0 256 256"
   width="256"
   version="1.1"
   id="svg6893"
   sodipodi:docname="qgislinz.svg"
   xml:space="preserve"
   inkscape:version="1.2.2 (b0a8486541, 2022-12-01)"
   xmlns:inkscape="http://www.inkscape.org/namespaces/inkscape"
   xmlns:sodipodi="http://sodipodi.sourceforge.net/DTD/sodipodi-0.dtd"
   xmlns:xlink="http://www.w3.org/1999/xlink"
   xmlns="http://www.w3.org/2000/svg"
   xmlns:svg="http://www.w3.org/2000/svg"><defs
     id="defs6897"><linearGradient
       id="b-0"
       x1="26.188"
       y1="20.373"
       x2="68.192"
       y2="70.42"
       gradientUnits="userSpaceOnUse"><stop
         stop-color="#73C8E1"
         id="stop6320" /><stop
         offset="1"
         stop-color="#007199"
         id="stop6322" /></linearGradient><linearGradient
       id="c-6"
       x1="22.267"
       y1="14.409"
       x2="66.386"
       y2="67.009"
       gradientUnits="userSpaceOnUse"><stop
         stop-color="#75CBC7"
         id="stop6325" /><stop
         offset="1"
         stop-color="#008782"
         id="stop6327" /></linearGradient><linearGradient
       id="d"
       x1="23.689"
       y1="14.5"
       x2="54.549"
       y2="57.16"
       gradientUnits="userSpaceOnUse"><stop
         stop-color="#9DD19A"
         id="stop6330" /><stop
         offset=".5"
         stop-color="#06A24A"
         id="stop6332" /><stop
         offset="1"
         stop-color="#06A24A"
         id="stop6334" /></linearGradient><linearGradient
       id="e"
       x1="10.794"
       y1="10.964"
       x2="36.895"
       y2="51.181"
       gradientUnits="userSpaceOnUse"><stop
         stop-color="#9DD19A"
         id="stop6337" /><stop
         offset="1"
         stop-color="#06A24A"
         id="stop6339" /></linearGradient><linearGradient
       id="f"
       x1="10.065"
       y1="38.539"
       x2="72.533"
       y2="38.539"
       gradientUnits="userSpaceOnUse"><stop
         stop-color="#fff"
         id="stop6342" /><stop
         offset="1"
         stop-color="#fff"
         id="stop6344" /></linearGradient><linearGradient
       id="g"
       x1="5802.46"
       y1="9573.77"
       x2="7887.98"
       y2="9573.77"
       gradientUnits="userSpaceOnUse"><stop
         stop-color="#fff"
         id="stop6347" /><stop
         offset="1"
         stop-color="#fff"
         id="stop6349" /></linearGradient><linearGradient
       id="h"
       x1="1565.88"
       y1="1401.39"
       x2="1725.15"
       y2="1401.39"
       gradientUnits="userSpaceOnUse"><stop
         stop-color="#fff"
         id="stop6352" /><stop
         offset="1"
         stop-color="#fff"
         id="stop6354" /></linearGradient><linearGradient
       id="i"
       x1="5636.27"
       y1="7724.18"
       x2="7751.49"
       y2="7724.18"
       gradientUnits="userSpaceOnUse"><stop
         stop-color="#fff"
         id="stop6357" /><stop
         offset="1"
         stop-color="#fff"
         id="stop6359" /></linearGradient><linearGradient
       id="j"
       x1="2713.57"
       y1="238.392"
       x2="3197.24"
       y2="238.392"
       gradientUnits="userSpaceOnUse"><stop
         stop-color="#fff"
         id="stop6362" /><stop
         offset="1"
         stop-color="#fff"
         id="stop6364" /></linearGradient><linearGradient
       id="k"
       x1="787.634"
       y1="124.833"
       x2="814.222"
       y2="124.833"
       gradientUnits="userSpaceOnUse"><stop
         stop-color="#fff"
         id="stop6367" /><stop
         offset="1"
         stop-color="#fff"
         id="stop6369" /></linearGradient><linearGradient
       id="l"
       x1="2867.5"
       y1="224.725"
       x2="3390.86"
       y2="224.725"
       gradientUnits="userSpaceOnUse"><stop
         stop-color="#fff"
         id="stop6372" /><stop
         offset="1"
         stop-color="#fff"
         id="stop6374" /></linearGradient><linearGradient
       id="m"
       x1="3296.77"
       y1="211.13"
       x2="3962.47"
       y2="211.13"
       gradientUnits="userSpaceOnUse"><stop
         stop-color="#fff"
         id="stop6377" /><stop
         offset="1"
         stop-color="#fff"
         id="stop6379" /></linearGradient><linearGradient
       id="n"
       x1="3079.46"
       y1="186.953"
       x2="3637.68"
       y2="186.953"
       gradientUnits="userSpaceOnUse"><stop
         stop-color="#fff"
         id="stop6382" /><stop
         offset="1"
         stop-color="#fff"
         id="stop6384" /></linearGradient><linearGradient
       id="o"
       x1="2276.86"
       y1="191.721"
       x2="2561.15"
       y2="191.721"
       gradientUnits="userSpaceOnUse"><stop
         stop-color="#fff"
         id="stop6387" /><stop
         offset="1"
         stop-color="#fff"
         id="stop6389" /></linearGradient><linearGradient
       id="p"
       x1="258.995"
       y1="989.347"
       x2="261.547"
       y2="989.347"
       gradientUnits="userSpaceOnUse"><stop
         stop-color="#fff"
         id="stop6392" /><stop
         offset="1"
         stop-color="#fff"
         id="stop6394" /></linearGradient><linearGradient
       id="q"
       x1="1217.13"
       y1="5069.12"
       x2="1287.1"
       y2="5069.12"
       gradientUnits="userSpaceOnUse"><stop
         stop-color="#fff"
         id="stop6397" /><stop
         offset="1"
         stop-color="#fff"
         id="stop6399" /></linearGradient><linearGradient
       id="r"
       x1="1716.21"
       y1="7371.71"
       x2="1871.06"
       y2="7371.71"
       gradientUnits="userSpaceOnUse"><stop
         stop-color="#fff"
         id="stop6402" /><stop
         offset="1"
         stop-color="#fff"
         id="stop6404" /></linearGradient><linearGradient
       id="s"
       x1="1984.2"
       y1="8168.63"
       x2="2209.3"
       y2="8168.63"
       gradientUnits="userSpaceOnUse"><stop
         stop-color="#fff"
         id="stop6407" /><stop
         offset="1"
         stop-color="#fff"
         id="stop6409" /></linearGradient><linearGradient
       id="t"
       x1="1895.45"
       y1="8207.01"
       x2="2121.75"
       y2="8207.01"
       gradientUnits="userSpaceOnUse"><stop
         stop-color="#fff"
         id="stop6412" /><stop
         offset="1"
         stop-color="#fff"
         id="stop6414" /></linearGradient><clipPath
       id="a-1"><path
         fill="#fff"
         transform="translate(1)"
         d="M0 0h274.968v64H0z"
         id="path6417" /></clipPath></defs><sodipodi:namedview
     id="namedview6895"
     pagecolor="#ffffff"
     bordercolor="#000000"
     borderopacity="0.25"
     inkscape:showpageshadow="2"
     inkscape:pageopacity="0.0"
     inkscape:pagecheckerboard="0"
     inkscape:deskcolor="#d1d1d1"
     showgrid="false"
     inkscape:zoom="2.8007812"
     inkscape:cx="83.548117"
     inkscape:cy="127.82148"
     inkscape:window-width="2560"
     inkscape:window-height="1300"
     inkscape:window-x="0"
     inkscape:window-y="0"
     inkscape:window-maximized="1"
     inkscape:current-layer="g7170" /><linearGradient
     id="a"><stop
       offset="0"
       stop-color="#589632"
       id="stop6876" /><stop
       offset="1"
       stop-color="#93b023"
       id="stop6878" /></linearGradient><linearGradient
     id="b"
     gradientUnits="userSpaceOnUse"
     x1="200.788"
     x2="197.17"
     xlink:href="#a"
     y1="249.007"
     y2="11.232" /><linearGradient
     id="c"
     gradientUnits="userSpaceOnUse"
     x1="129.939"
     x2="126.351"
     xlink:href="#a"
     y1="252.718"
     y2="16.928" /><g
     style="fill:none"
     id="g7170"
     transform="translate(90.955478,95.821478)"><g
       clip-path="url(#a-1)"
       id="g6318"
       transform="matrix(2.5395909,0,0,2.5395909,-56.758559,-49.266909)"
       style="display:inline"><path
         d="m 32.717,13.515 c -9.484,9.703 -19.37,33.541 -22.616,49.828 10.834,-1.605 28.726,-1.824 46.71,0.383 2.243,-15.028 7.441,-36.842 15.521,-50.503 a 227.887,227.887 0 0 0 -19.169,-0.82 c -6.831,-0.04 -13.659,0.331 -20.446,1.112 z"
         fill="url(#b)"
         id="path6274"
         style="fill:url(#b-0)" /><path
         d="M 28.905,7.989 C 19.421,17.673 10.302,41.73 6.965,58.018 a 197.652,197.652 0 0 1 44.41,-0.474 C 54.312,40.508 59.966,22.087 68.52,7.715 A 227.467,227.467 0 0 0 49.37,6.895 C 42.533,6.859 35.7,7.225 28.905,7.989 Z"
         fill="url(#c)"
         id="path6276"
         style="display:inline;fill:url(#c-6)" /><path
         d="M 25.02,4.414 C 15.992,13.534 7.073,36.496 3.973,51.999 A 150.05,150.05 0 0 1 20.88,50.704 c -0.364,-0.146 0,-1.514 0,-1.55 a 8.718,8.718 0 0 1 3.1,-4.287 c 1.588,-1.35 0.876,-2.225 2.098,-2.717 a 39.92,39.92 0 0 0 7.46,-4.286 c 2.918,-2.152 3.958,-9.612 4.03,-9.12 0.074,0.493 1.113,0.238 1.113,0.694 0,0.455 0.31,1.294 0.511,1.294 0.2,0 1.058,-2.206 3.046,-2.243 a 5.471,5.471 0 0 1 3.429,1.331 l 0.875,-0.109 0.183,-0.237 1.55,-4.231 7.296,-8.427 c 0.294,-0.064 0.599,-0.064 0.893,0 A 109.664,109.664 0 0 1 62.994,4.049 221.725,221.725 0 0 0 44.427,3.247 C 37.93,3.215 31.437,3.575 24.984,4.323"
         fill="url(#d)"
         id="path6278"
         style="display:inline;fill:url(#d)" /><path
         d="m 37.46,3.119 c 0.182,-0.146 0.328,0 0.765,-0.11 0.803,-0.164 0.329,0 0.402,0.53 0.073,0.528 0.583,0.802 1.13,1.33 0.548,0.53 1.168,0.33 2.718,1.387 1.55,1.058 1.368,1.824 1.167,2.535 -0.2,0.711 1.095,0.912 0.967,2.262 -0.128,1.35 0.128,1.824 0.82,2.006 0.694,0.182 1.022,1.569 1.496,1.295 0.475,-0.274 -0.273,-1.003 -0.346,-1.824 -0.073,-0.82 0.128,-1.404 0.401,-1.003 0.274,0.401 0.876,0.128 1.022,0.93 0.201,1.185 0.525,2.347 0.966,3.465 a 11.124,11.124 0 0 0 3.466,1.533 c 0.893,0.31 1.823,-1.04 2.37,-1.295 0.548,-0.256 1.533,-0.475 1.952,0 0.42,0.474 -0.383,1.331 -0.656,2.735 -0.274,1.405 -1.131,1.15 -1.478,1.952 -0.346,0.802 0,0.857 0.11,0.875 0.11,0.019 0.11,0 0,0.165 -0.106,0.258 -0.261,0.493 -0.456,0.693 -0.146,0.127 0,-0.475 -0.256,-0.748 a 2.296,2.296 0 0 0 -1.112,0 2.535,2.535 0 0 0 -2.043,1.258 0.766,0.766 0 0 0 0.383,0.985 c 0.365,0.164 0.401,0.237 0.274,0.456 a 24.452,24.452 0 0 1 -2.08,3.356 c -0.984,1.15 -1.44,2.608 -2.608,3.283 -1.167,0.675 -1.35,0.602 -1.35,0.2 0,-0.4 -0.273,-0.656 -0.547,-0.51 a 0.821,0.821 0 0 1 -0.875,-0.2 c -0.347,-0.274 0,-0.602 0.602,-1.405 a 4.413,4.413 0 0 0 0.802,-3.648 c -0.42,-0.966 -1.532,-0.711 -2.316,-1.295 -0.784,-0.583 -1.824,-0.638 -1.933,-1.66 -0.11,-1.02 0.784,-1.148 1.824,-1.677 1.04,-0.53 1.35,-2.5 1.495,-3.885 a 7.404,7.404 0 0 0 -0.912,-3.648 c -0.492,-1.313 -1.076,-1.951 -1.076,-2.17 0,-0.22 0.237,0 0.2,-0.165 -0.036,-0.164 -0.382,-0.638 -0.382,-0.474 0,0.164 -0.292,0.42 -0.566,0 -0.273,-0.42 -2.115,-3.228 -2.662,-3.903 -0.548,-0.675 0,-0.456 0,-0.857 A 6.986,6.986 0 0 0 37.898,3.684 C 37.496,3.155 37.222,3.064 37.405,2.954 l 0.054,0.165 z M 42,33.304 c 0.26,-0.35 0.474,-0.73 0.64,-1.13 0,-0.238 -0.639,-0.165 -0.694,-0.767 -0.054,-0.602 0.438,-1.149 0.438,-1.477 0,-0.328 -0.2,-0.11 -0.328,-0.11 a 0.31,0.31 0 0 1 -0.329,-0.182 c 0,-0.255 -0.4,-0.346 -1.021,-0.091 -0.62,0.255 -1.222,0.985 -1.404,0.967 -0.183,-0.019 -0.493,-0.93 -0.493,-1.387 0,-0.456 -1.13,-0.255 -1.094,-0.784 0.016,-0.203 0.085,-0.398 0.2,-0.565 0,0 0.11,-0.128 0,-0.164 -0.875,-0.128 -1.513,0.802 -1.933,1.203 -0.42,0.402 0.602,1.952 -0.456,2.773 -1.058,0.82 -1.495,0.656 -1.568,1.058 a 7.605,7.605 0 0 1 -3.083,5.18 36.754,36.754 0 0 1 -5.617,4.158 c -1.186,0.51 -1.368,2.097 -2.9,3.52 -1.532,1.422 -2.39,4.359 -1.605,5.18 a 2.06,2.06 0 0 0 2.207,0.437 1.24,1.24 0 0 1 1.13,0.365 c 0.183,0.274 0.985,0 1.387,0.274 0.66,0.423 1.448,0.597 2.225,0.492 a 6.42,6.42 0 0 0 4.304,-3.283 14.082,14.082 0 0 0 1.605,-5.362 4.395,4.395 0 0 1 2.608,-2.553 c 1.295,-0.347 1.405,-0.511 1.824,-0.274 0.42,0.237 1.35,0.347 1.259,-0.456 -0.092,-0.803 -1.204,-0.529 -1.204,-1.167 0,-0.639 -0.2,-1.095 0.584,-1.441 0.784,-0.347 1.313,-1.423 1.823,-2.353 0.43,-0.735 0.93,-1.425 1.496,-2.06 z"
         fill="#ffffff"
         id="path6280"
         style="display:inline"
         inkscape:label="main path6280" /><path
         d="M 20.862,0.823 C 12.327,9.542 4.01,30.59 1,45.345 5.36,44.706 14.661,44.05 21.063,43.885 h 2.59 c 0.565,-0.893 0.93,-1.659 1.678,-1.987 a 35.349,35.349 0 0 0 5.636,-4.159 7.605,7.605 0 0 0 3.01,-5.29 c 0,-0.437 0.51,-0.218 1.55,-1.057 1.04,-0.839 0,-2.371 0.456,-2.772 0.456,-0.402 1.04,-1.295 1.951,-1.204 v 0.164 c -0.123,0.164 -0.193,0.36 -0.2,0.566 0,0.528 1.094,0.328 1.094,0.784 0,0.456 0.31,1.368 0.492,1.386 0.183,0.018 0.785,-0.711 1.405,-0.967 l 0.237,-0.091 h 0.328 c 0.631,0.008 1.253,0.15 1.824,0.42 0.262,0.183 0.5,0.397 0.711,0.638 0,-0.237 0.256,-0.584 0.766,-1.186 a 4.105,4.105 0 0 0 0.803,-3.556 c -0.06,-0.158 -0.154,-0.301 -0.274,-0.42 l -0.2,-0.182 c -0.511,-0.274 -1.204,-0.274 -1.715,-0.639 -0.51,-0.364 -1.824,-0.656 -1.951,-1.66 -0.128,-1.002 0.82,-1.148 1.824,-1.677 1.003,-0.53 1.35,-2.554 1.477,-3.958 A 7.296,7.296 0 0 0 43.643,13.39 c -0.492,-1.295 -1.076,-1.952 -1.076,-2.17 0,-0.22 0.237,0 0.2,-0.183 -0.036,-0.182 -0.383,-0.638 -0.383,-0.474 0,0.164 -0.291,0.401 -0.565,0 -0.274,-0.401 -2.116,-3.192 -2.663,-3.885 -0.547,-0.693 0,-0.474 0,-0.857 A 7.133,7.133 0 0 0 37.971,3.614 4.123,4.123 0 0 0 37.515,3.084 c 0,0 -0.11,-0.127 0,-0.163 A 14.464,14.464 0 0 0 35.965,0.313 1.058,1.058 0 0 0 35.581,0.003 C 30.328,-0.034 24.857,0.331 20.862,0.823 Z"
         fill="url(#e)"
         id="path6282"
         style="display:inline;fill:url(#e)" /><path
         d="m 24.364,52.674 c -0.566,-0.146 -0.31,0.346 -0.292,0.747 0.018,0.402 -0.2,0.365 -0.292,0.712 -0.09,0.346 -0.237,0.711 -0.127,0.893 0.109,0.183 0.218,0.183 0.492,-0.127 0.274,-0.31 0.274,-0.292 0.73,-0.328 0.456,-0.037 0.638,-0.128 0.583,-0.639 a 1.642,1.642 0 0 0 -1.094,-1.258 z"
         fill="#ffffff"
         id="path6284"
         style="display:inline"
         inkscape:label="stewart path6284" /><path
         d="m 10.101,63.343 c 10.834,-1.605 28.726,-1.824 46.71,0.383 2.243,-15.028 7.441,-36.842 15.521,-50.503"
         stroke="url(#f)"
         stroke-width="0.8"
         stroke-miterlimit="10"
         stroke-linecap="round"
         id="path6286"
         style="display:inline;stroke:url(#f)" /><path
         d="M 6.964,58.018 A 197.652,197.652 0 0 1 51.376,57.544 C 54.312,40.508 59.966,22.087 68.52,7.715"
         stroke="url(#g)"
         stroke-width="0.8"
         stroke-miterlimit="10"
         stroke-linecap="round"
         id="path6288"
         style="display:inline;stroke:url(#g)" /><path
         d="m 5.596,45.178 c -0.602,2.28 -1.204,4.76 -1.623,6.82 A 150.05,150.05 0 0 1 20.88,50.704"
         stroke="url(#h)"
         stroke-width="0.8"
         stroke-miterlimit="10"
         stroke-linecap="round"
         id="path6290"
         style="display:inline;stroke:url(#h)" /><path
         d="m 1.036,45.688 c 4.36,-0.638 16.963,-1.477 23.31,-1.641 M 63.03,4.14 A 109.68,109.68 0 0 0 56.5,16.907 Z"
         stroke="url(#i)"
         stroke-width="0.8"
         stroke-miterlimit="10"
         stroke-linecap="round"
         id="path6292"
         style="display:inline;stroke:url(#i)" /><g
         opacity="0.5"
         stroke-width="0.8"
         stroke-miterlimit="10"
         stroke-linecap="round"
         id="g6316"
         style="display:inline"><path
           d="M 3.152,37.207 A 263.503,263.503 0 0 1 32.626,36.222"
           stroke="url(#j)"
           id="path6294"
           style="stroke:url(#j)" /><path
           d="M 44.773,29.31 A 128.71,128.71 0 0 0 38.025,28.799"
           stroke="url(#k)"
           id="path6296"
           style="stroke:url(#k)" /><path
           d="m 5.578,29.674 a 256.247,256.247 0 0 1 30.678,-0.93"
           stroke="url(#l)"
           id="path6298"
           style="stroke:url(#l)" /><path
           d="M 8.478,22.105 A 283.202,283.202 0 0 1 43.132,21.266"
           stroke="url(#m)"
           id="path6300"
           style="stroke:url(#m)" /><path
           d="m 12.126,14.482 a 281.297,281.297 0 0 1 31.68,-0.84"
           stroke="url(#n)"
           id="path6302"
           style="stroke:url(#n)" /><path
           d="M 16.357,6.967 C 23.762,6.384 32.535,5.91 39.12,5.91"
           stroke="url(#o)"
           id="path6304"
           style="stroke:url(#o)" /><path
           d="m 42.986,24.44 c -0.693,1.824 -1.331,3.484 -1.933,5.162"
           stroke="url(#p)"
           id="path6306"
           style="stroke:url(#p)" /><path
           d="M 41.946,10.816 A 136.794,136.794 0 0 0 30.876,38.083"
           stroke="url(#q)"
           id="path6308"
           style="stroke:url(#q)" /><path
           d="m 38.408,4.469 c -8.919,13.46 -14.062,29.62 -16.58,39.724"
           stroke="url(#r)"
           id="path6310"
           style="stroke:url(#r)" /><path
           d="M 34.505,0.219 C 22.85,14.664 17.269,33.779 14.442,44.52"
           stroke="url(#s)"
           id="path6312"
           style="stroke:url(#s)" /><path
           d="M 27.21,0.584 C 15.19,15.466 9.79,34.49 7.145,45.032"
           stroke="url(#t)"
           id="path6314"
           style="display:inline;stroke:url(#t)" /></g></g><path
       d="m137.607 136.899h34.437l-29.146-28.816h-35.708v34.309l30.417 30.316z"
       fill="#ee7913"
       id="path6883"
       transform="translate(-90.955478,-95.821478)" /><path
       d="m248.061 212.048-61.443-60.742h-34.608v35.761l58.881 58.682h37.17z"
       fill="url(#b)"
       id="path6885"
       transform="translate(-90.955478,-95.821478)" /><path
       d="m152.01 151.306h34.608l-14.574-14.407h-34.437v35.809l14.403 14.359z"
       fill="#f0e64a"
       id="path6887"
       transform="translate(-90.955478,-95.821478)" /><path
       d="m 144.826,199.3 c -5.22,1.202 -10.643,1.854 -16.238,1.854 -40.027,0 -74.072,-32.914 -74.072,-75.59 0,-42.677 33.666,-74.869 74.072,-74.869 40.401,0 72.57,32.187 72.57,74.869 0,6.937 -0.863,13.619 -2.461,19.945 l 37.047,37.042 c 9.552,-16.736 14.896,-36.197 14.896,-57.274 0,-65.778 -52.493,-115.026 -122.801,-115.026 -69.99,0 -122.479,48.927 -122.479,115.026 0,66.421 52.489,116.321 122.479,116.321 18.066,0 34.952,-3.323 50.077,-9.371 z"
       fill="url(#c)"
       id="path6889"
       transform="translate(-90.955478,-95.821478)"
       style="display:inline"
       inkscape:label="path6889" /><path
       d="M 107.19,108.083 248.061,245.749 V 212.048 L 186.618,151.306 172.044,136.898 142.898,108.083 Z"
       fill="#ffffff"
       fill-opacity="0.172"
       id="path6891"
       transform="translate(-90.955478,-95.821478)"
       inkscape:label="path6891"
       style="display:inline" /></g></svg>
